<svg width="392" height="373" viewBox="0 0 392 373" fill="none" xmlns="http://www.w3.org/2000/svg">
<g filter="url(#filter0_di_258_10571)">
<path d="M228.83 329C247.292 329 263.619 324.833 277.81 316.499C292.002 308.034 303.18 296.444 311.343 281.73C319.381 267.014 323.4 250.086 323.4 230.943V134.057C323.4 114.914 319.381 97.9864 311.343 83.2703C303.18 68.5555 292.002 57.0309 277.81 48.6967C263.619 40.2322 247.292 36 228.83 36C210.368 36 194.042 40.2322 179.849 48.6967C165.657 57.0309 154.542 68.5555 146.505 83.2703C138.341 97.9864 134.26 114.914 134.26 134.057V230.943C134.26 250.086 138.341 267.014 146.505 281.73C154.542 296.444 165.657 308.034 179.849 316.499C194.042 324.833 210.368 329 228.83 329ZM228.83 289.933C218.783 289.933 209.677 287.46 201.514 282.51C193.225 277.432 186.632 270.661 181.733 262.196C176.835 253.601 174.387 244.03 174.387 233.482V131.127C174.387 120.709 176.835 111.268 181.733 102.804C186.632 94.2095 193.225 87.4377 201.514 82.4895C209.677 77.4104 218.783 74.8708 228.83 74.8708C238.877 74.8708 248.045 77.4104 256.335 82.4895C264.498 87.4377 271.028 94.2095 275.927 102.804C280.825 111.268 283.274 120.709 283.274 131.127V233.482C283.274 244.03 280.825 253.601 275.927 262.196C271.028 270.661 264.498 277.432 256.335 282.51C248.045 287.46 238.877 289.933 228.83 289.933Z" fill="url(#paint0_linear_258_10571)"/>
<path d="M228.83 329C247.292 329 263.619 324.833 277.81 316.499C292.002 308.034 303.18 296.444 311.343 281.73C319.381 267.014 323.4 250.086 323.4 230.943V134.057C323.4 114.914 319.381 97.9864 311.343 83.2703C303.18 68.5555 292.002 57.0309 277.81 48.6967C263.619 40.2322 247.292 36 228.83 36C210.368 36 194.042 40.2322 179.849 48.6967C165.657 57.0309 154.542 68.5555 146.505 83.2703C138.341 97.9864 134.26 114.914 134.26 134.057V230.943C134.26 250.086 138.341 267.014 146.505 281.73C154.542 296.444 165.657 308.034 179.849 316.499C194.042 324.833 210.368 329 228.83 329ZM228.83 289.933C218.783 289.933 209.677 287.46 201.514 282.51C193.225 277.432 186.632 270.661 181.733 262.196C176.835 253.601 174.387 244.03 174.387 233.482V131.127C174.387 120.709 176.835 111.268 181.733 102.804C186.632 94.2095 193.225 87.4377 201.514 82.4895C209.677 77.4104 218.783 74.8708 228.83 74.8708C238.877 74.8708 248.045 77.4104 256.335 82.4895C264.498 87.4377 271.028 94.2095 275.927 102.804C280.825 111.268 283.274 120.709 283.274 131.127V233.482C283.274 244.03 280.825 253.601 275.927 262.196C271.028 270.661 264.498 277.432 256.335 282.51C248.045 287.46 238.877 289.933 228.83 289.933Z" fill="black" fill-opacity="0.2"/>
</g>
<g filter="url(#filter1_di_258_10571)">
<path d="M219.03 321C237.492 321 253.819 316.833 268.01 308.499C282.202 300.034 293.38 288.444 301.543 273.73C309.581 259.014 313.6 242.086 313.6 222.943V126.057C313.6 106.914 309.581 89.9864 301.543 75.2703C293.38 60.5555 282.202 49.0309 268.01 40.6967C253.819 32.2322 237.492 28 219.03 28C200.568 28 184.242 32.2322 170.049 40.6967C155.857 49.0309 144.742 60.5555 136.705 75.2703C128.541 89.9864 124.46 106.914 124.46 126.057V222.943C124.46 242.086 128.541 259.014 136.705 273.73C144.742 288.444 155.857 300.034 170.049 308.499C184.242 316.833 200.568 321 219.03 321ZM219.03 281.933C208.983 281.933 199.877 279.46 191.714 274.51C183.425 269.432 176.832 262.661 171.933 254.196C167.035 245.601 164.587 236.03 164.587 225.482V123.127C164.587 112.709 167.035 103.268 171.933 94.8037C176.832 86.2095 183.425 79.4377 191.714 74.4895C199.877 69.4104 208.983 66.8708 219.03 66.8708C229.077 66.8708 238.245 69.4104 246.535 74.4895C254.698 79.4377 261.228 86.2095 266.127 94.8037C271.025 103.268 273.474 112.709 273.474 123.127V225.482C273.474 236.03 271.025 245.601 266.127 254.196C261.228 262.661 254.698 269.432 246.535 274.51C238.245 279.46 229.077 281.933 219.03 281.933Z" fill="url(#paint1_linear_258_10571)"/>
</g>
<path d="M345.94 308.258V300.104H372.631C373.05 300.104 373.562 300.09 374.166 300.065C374.796 300.011 375.491 299.88 376.253 299.669C378.432 299.061 380.007 297.967 380.977 296.383C381.947 294.774 382.434 292.9 382.434 290.762C382.434 289.47 382.237 288.176 381.843 286.883C381.475 285.563 380.833 284.403 379.914 283.4C379.022 282.397 377.802 281.698 376.253 281.302C375.57 281.118 374.875 281.011 374.166 280.985C373.483 280.96 372.972 280.946 372.631 280.946H357.79V272H373.025C373.314 272 373.877 272.014 374.718 272.04C375.584 272.065 376.542 272.158 377.591 272.317C380.845 272.817 383.536 273.914 385.662 275.602C387.813 277.29 389.402 279.428 390.425 282.015C391.474 284.574 392 287.398 392 290.485C392 295.21 390.805 299.115 388.417 302.202C386.03 305.29 382.42 307.203 377.591 307.942C376.542 308.074 375.584 308.165 374.718 308.219C373.877 308.244 373.314 308.258 373.025 308.258H345.94ZM345.94 321.242V313.76H379.52V321.242H345.94ZM351.57 329V272H361.057V329H351.57Z" fill="#D000AC"/>
<path d="M379.757 341.271H0V344H379.757V341.271Z" fill="#999999" fill-opacity="0.3"/>
<path d="M3.60004 292.562L5.08487 287.227H0L0.840486 284.121H5.92536L6.79385 280.906H1.70897L2.57746 277.814H7.64833L9.0071 272.889H12.299L10.9262 277.814H14.3721L15.7309 272.889H19.0228L17.65 277.814H22.7348L21.8804 280.906H16.8095L15.913 284.121H20.9979L20.1434 287.227H15.0725L13.6157 292.562H10.3238L11.7807 287.227H8.34873L6.89189 292.562H3.60004ZM9.21721 284.121H12.6351L13.5176 280.906H10.0857L9.21721 284.121ZM24.9801 292.59V289.826C25.4284 289.853 25.8066 289.821 26.1148 289.73C26.4229 289.63 26.6801 289.443 26.8852 289.169C27.1003 288.887 27.2864 288.49 27.4455 287.979C27.6046 287.459 27.7587 286.807 27.9078 286.023C28.1229 284.901 28.3 283.734 28.4401 282.521C28.5892 281.298 28.7152 280.099 28.8183 278.922C28.9213 277.737 29.0004 276.624 29.0564 275.584C29.1125 274.545 29.1595 273.646 29.1965 272.889H42.7001V292.59H39.3242V275.981H32.3203C32.2732 276.592 32.2172 277.331 32.1522 278.197C32.0961 279.055 32.0171 279.985 31.914 280.988C31.821 281.992 31.6989 283.031 31.5498 284.107C31.4098 285.184 31.2367 286.242 31.0315 287.281C30.8444 288.23 30.6203 289.083 30.3592 289.84C30.098 290.588 29.7478 291.208 29.3086 291.7C28.8793 292.184 28.314 292.507 27.6136 292.672C26.9222 292.836 26.0447 292.808 24.9801 292.59ZM50.8567 293C49.7641 293 48.8396 292.799 48.0832 292.398C47.3267 291.988 46.7524 291.445 46.3602 290.77C45.978 290.095 45.7859 289.352 45.7859 288.54C45.7859 287.829 45.9079 287.19 46.1501 286.625C46.3932 286.05 46.7664 285.558 47.2707 285.147C47.775 284.728 48.4294 284.386 49.2318 284.121C49.8392 283.93 50.5486 283.756 51.361 283.601C52.1835 283.446 53.07 283.305 54.0225 283.177C54.9851 283.04 55.9886 282.894 57.0342 282.739L55.8295 283.41C55.8395 282.388 55.6054 281.636 55.1292 281.152C54.6529 280.669 53.8504 280.427 52.7198 280.427C52.0384 280.427 51.38 280.582 50.7447 280.893C50.1103 281.203 49.6661 281.736 49.4139 282.493L46.3322 281.549C46.7064 280.3 47.4158 279.296 48.4614 278.539C49.517 277.782 50.9368 277.404 52.7198 277.404C54.0645 277.404 55.2462 277.618 56.2638 278.047C57.2914 278.476 58.0528 279.178 58.5471 280.154C58.8182 280.674 58.9813 281.207 59.0373 281.754C59.0934 282.293 59.1214 282.881 59.1214 283.519V292.59H56.1657V289.388L56.656 289.908C55.9746 290.975 55.1762 291.76 54.2607 292.261C53.3552 292.754 52.2205 293 50.8567 293ZM51.5291 290.373C52.2955 290.373 52.9489 290.241 53.4902 289.977C54.0325 289.712 54.4618 289.388 54.779 289.005C55.1061 288.622 55.3253 288.262 55.4373 287.924C55.6154 287.505 55.7135 287.026 55.7315 286.488C55.7595 285.941 55.7735 285.498 55.7735 285.161L56.8101 285.462C55.7925 285.617 54.919 285.754 54.1906 285.872C53.4622 285.991 52.8368 286.105 52.3135 286.214C51.7912 286.315 51.329 286.429 50.9268 286.556C50.5346 286.693 50.2034 286.853 49.9322 287.035C49.6621 287.218 49.452 287.427 49.3019 287.664C49.1618 287.902 49.0917 288.18 49.0917 288.499C49.0917 288.864 49.1858 289.188 49.3719 289.47C49.559 289.744 49.8302 289.963 50.1844 290.127C50.5486 290.291 50.9968 290.373 51.5291 290.373ZM69.7584 276.145C68.983 276.145 68.2736 275.958 67.6292 275.584C66.9848 275.21 66.4715 274.713 66.0883 274.093C65.7051 273.464 65.514 272.766 65.514 272H68.1475C68.1475 272.438 68.3016 272.812 68.6098 273.122C68.9269 273.423 69.3102 273.573 69.7584 273.573C70.2066 273.573 70.5849 273.423 70.893 273.122C71.2102 272.812 71.3693 272.438 71.3693 272H74.0028C74.0028 272.766 73.8117 273.464 73.4285 274.093C73.0452 274.713 72.532 275.21 71.8876 275.584C71.2433 275.958 70.5338 276.145 69.7584 276.145ZM75.8799 277.814V292.59H72.644V282.945L65.444 292.59H62.7405V277.814H65.9763V287.213L73.2043 277.814H75.8799ZM79.7851 292.59L79.8131 277.814H83.231V284.928L88.7642 277.814H92.9805L87.1112 285.202L93.4848 292.59H89.0163L83.231 285.476V292.59H79.7851ZM108 277.814V292.59H104.764V282.945L97.5641 292.59H94.8606V277.814H98.0964V287.213L105.325 277.814H108Z" fill="url(#paint2_linear_258_10571)"/>
<path d="M3.60079 328.552L5.08591 323.092H0L0.840643 319.914H5.92656L6.79524 316.624H1.70932L2.578 313.46H7.6499L9.00894 308.42H12.3015L10.9284 313.46H14.3751L15.7341 308.42H19.0266L17.6536 313.46H22.7395L21.8848 316.624H16.813L15.9163 319.914H21.0021L20.1475 323.092H15.0756L13.6185 328.552H10.3259L11.7831 323.092H8.35042L6.8933 328.552H3.60079ZM9.2191 319.914H12.6377L13.5204 316.624H10.0878L9.2191 319.914ZM34.9189 329C32.9013 329 31.173 328.561 29.7349 327.684C28.2968 326.797 27.1899 325.565 26.4143 323.988C25.6487 322.411 25.2654 320.581 25.2654 318.5C25.2654 316.419 25.6487 314.589 26.4143 313.012C27.1899 311.435 28.2968 310.207 29.7349 309.33C31.173 308.443 32.9013 308 34.9189 308C36.9364 308 38.6648 308.443 40.1029 309.33C41.551 310.207 42.6578 311.435 43.4234 313.012C44.199 314.589 44.5863 316.419 44.5863 318.5C44.5863 320.581 44.199 322.411 43.4234 323.988C42.6578 325.565 41.551 326.797 40.1029 327.684C38.6648 328.561 36.9364 329 34.9189 329ZM34.9189 325.822C36.2729 325.831 37.3988 325.533 38.2955 324.926C39.2012 324.319 39.8787 323.465 40.327 322.364C40.7844 321.263 41.0135 319.975 41.0135 318.5C41.0135 317.025 40.7844 315.747 40.327 314.664C39.8787 313.572 39.2012 312.723 38.2955 312.116C37.3988 311.509 36.2729 311.197 34.9189 311.178C33.5648 311.169 32.439 311.467 31.5423 312.074C30.6456 312.681 29.9681 313.535 29.5107 314.636C29.0624 315.737 28.8382 317.025 28.8382 318.5C28.8382 319.975 29.0624 321.258 29.5107 322.35C29.9591 323.433 30.6316 324.277 31.5283 324.884C32.4339 325.491 33.5648 325.803 34.9189 325.822ZM51.1724 328.58V316.456H46.1145V313.46H59.6069V316.456H54.549V328.58H51.1724ZM67.642 329C66.2029 329 64.8909 328.697 63.705 328.09C62.5181 327.483 61.5844 326.653 60.9029 325.598L63.5649 323.82C64.1063 324.464 64.7088 324.963 65.3723 325.318C66.0348 325.663 66.7734 325.836 67.586 325.836C68.4356 325.836 69.1032 325.649 69.5895 325.276C70.0749 324.903 70.3181 324.403 70.3181 323.778C70.3181 323.227 70.154 322.84 69.8277 322.616C69.5005 322.383 69.0711 322.243 68.5387 322.196C68.0063 322.149 67.4359 322.126 66.8294 322.126H65.7086V319.452H66.8154C67.6651 319.452 68.3746 319.354 68.945 319.158C69.5235 318.962 69.8137 318.528 69.8137 317.856C69.8137 317.249 69.5895 316.82 69.1412 316.568C68.6929 316.307 68.1695 316.176 67.572 316.176C66.8434 316.176 66.1239 316.33 65.4143 316.638C64.7038 316.946 64.0693 317.319 63.5089 317.758L61.6034 315.462C62.444 314.715 63.3828 314.127 64.4195 313.698C65.4563 313.259 66.5632 313.04 67.7401 313.04C68.7109 313.04 69.6176 313.208 70.4582 313.544C71.3079 313.88 71.9894 314.384 72.5038 315.056C73.0262 315.728 73.2884 316.559 73.2884 317.548C73.2884 318.257 73.1343 318.925 72.826 319.55C72.5268 320.175 72.0454 320.768 71.3829 321.328L71.3409 320.236C71.8543 320.451 72.2886 320.749 72.6439 321.132C73.0082 321.515 73.2834 321.963 73.4705 322.476C73.6667 322.989 73.7648 323.535 73.7648 324.114C73.7648 325.169 73.4845 326.06 72.9241 326.788C72.3637 327.516 71.6161 328.067 70.6824 328.44C69.7577 328.813 68.7439 329 67.642 329ZM76.8331 328.58L76.8191 313.46H80.1957V318.5H81.891C82.3113 318.5 82.7827 318.509 83.3061 318.528C83.8385 318.547 84.2819 318.589 84.6371 318.654C85.4868 318.841 86.2103 319.139 86.8088 319.55C87.4153 319.961 87.8776 320.497 88.1959 321.16C88.5131 321.823 88.6722 322.621 88.6722 323.554C88.6722 324.889 88.3259 325.957 87.6354 326.76C86.9439 327.553 85.9771 328.095 84.7352 328.384C84.3709 328.468 83.9176 328.524 83.3762 328.552C82.8337 328.571 82.3533 328.58 81.933 328.58H76.8331ZM80.1957 325.934H82.2273C82.4324 325.934 82.6616 325.925 82.9138 325.906C83.166 325.887 83.4042 325.845 83.6283 325.78C84.0487 325.668 84.422 325.416 84.7492 325.024C85.0755 324.623 85.2396 324.133 85.2396 323.554C85.2396 322.947 85.0755 322.448 84.7492 322.056C84.422 321.664 84.0206 321.407 83.5443 321.286C83.3201 321.23 83.0909 321.193 82.8577 321.174C82.6336 321.155 82.4234 321.146 82.2273 321.146H80.1957V325.934ZM90.2554 328.58V313.46H93.632V328.58H90.2554ZM97.534 328.58V313.46H104.413C104.909 313.46 105.371 313.488 105.8 313.544C106.23 313.6 106.599 313.67 106.907 313.754C107.636 313.969 108.28 314.389 108.841 315.014C109.401 315.63 109.681 316.484 109.681 317.576C109.681 318.22 109.578 318.752 109.373 319.172C109.168 319.583 108.897 319.928 108.561 320.208C108.401 320.339 108.238 320.451 108.07 320.544C107.902 320.637 107.734 320.712 107.566 320.768C107.93 320.824 108.275 320.931 108.603 321.09C109.116 321.342 109.546 321.715 109.892 322.21C110.247 322.705 110.424 323.4 110.424 324.296C110.424 325.313 110.177 326.172 109.681 326.872C109.196 327.563 108.481 328.043 107.538 328.314C107.192 328.407 106.795 328.477 106.347 328.524C105.898 328.561 105.441 328.58 104.974 328.58H97.534ZM100.953 325.976H104.736C104.932 325.976 105.147 325.957 105.38 325.92C105.613 325.883 105.823 325.831 106.011 325.766C106.347 325.645 106.59 325.43 106.739 325.122C106.898 324.814 106.977 324.492 106.977 324.156C106.977 323.699 106.86 323.335 106.627 323.064C106.403 322.784 106.132 322.597 105.814 322.504C105.627 322.429 105.422 322.387 105.198 322.378C104.983 322.359 104.806 322.35 104.666 322.35H100.953V325.976ZM100.953 319.704H103.755C104.044 319.704 104.324 319.69 104.595 319.662C104.876 319.625 105.109 319.564 105.296 319.48C105.604 319.359 105.828 319.153 105.969 318.864C106.118 318.575 106.193 318.253 106.193 317.898C106.193 317.525 106.109 317.189 105.941 316.89C105.781 316.582 105.525 316.377 105.17 316.274C104.937 316.181 104.652 316.129 104.315 316.12C103.988 316.111 103.778 316.106 103.685 316.106H100.953V319.704ZM113.201 328.58L113.187 313.46H116.564V318.5H118.259C118.679 318.5 119.151 318.509 119.674 318.528C120.206 318.547 120.65 318.589 121.005 318.654C121.855 318.841 122.578 319.139 123.177 319.55C123.783 319.961 124.246 320.497 124.564 321.16C124.881 321.823 125.04 322.621 125.04 323.554C125.04 324.889 124.694 325.957 124.003 326.76C123.312 327.553 122.345 328.095 121.103 328.384C120.739 328.468 120.286 328.524 119.744 328.552C119.202 328.571 118.721 328.58 118.301 328.58H113.201ZM116.564 325.934H118.595C118.8 325.934 119.03 325.925 119.282 325.906C119.534 325.887 119.772 325.845 119.996 325.78C120.417 325.668 120.79 325.416 121.117 325.024C121.443 324.623 121.608 324.133 121.608 323.554C121.608 322.947 121.443 322.448 121.117 322.056C120.79 321.664 120.389 321.407 119.912 321.286C119.688 321.23 119.459 321.193 119.226 321.174C119.002 321.155 118.791 321.146 118.595 321.146H116.564V325.934ZM126.623 328.58V313.46H130V328.58H126.623Z" fill="url(#paint3_linear_258_10571)"/>
<defs>
<filter id="filter0_di_258_10571" x="94.26" y="0" width="269.14" height="373" filterUnits="userSpaceOnUse" color-interpolation-filters="sRGB">
<feFlood flood-opacity="0" result="BackgroundImageFix"/>
<feColorMatrix in="SourceAlpha" type="matrix" values="0 0 0 0 0 0 0 0 0 0 0 0 0 0 0 0 0 0 127 0" result="hardAlpha"/>
<feOffset dy="4"/>
<feGaussianBlur stdDeviation="20"/>
<feComposite in2="hardAlpha" operator="out"/>
<feColorMatrix type="matrix" values="0 0 0 0 0 0 0 0 0 0 0 0 0 0 0 0 0 0 0.5 0"/>
<feBlend mode="normal" in2="BackgroundImageFix" result="effect1_dropShadow_258_10571"/>
<feBlend mode="normal" in="SourceGraphic" in2="effect1_dropShadow_258_10571" result="shape"/>
<feColorMatrix in="SourceAlpha" type="matrix" values="0 0 0 0 0 0 0 0 0 0 0 0 0 0 0 0 0 0 127 0" result="hardAlpha"/>
<feOffset dx="-10" dy="-4"/>
<feGaussianBlur stdDeviation="20"/>
<feComposite in2="hardAlpha" operator="arithmetic" k2="-1" k3="1"/>
<feColorMatrix type="matrix" values="0 0 0 0 0 0 0 0 0 0 0 0 0 0 0 0 0 0 0.25 0"/>
<feBlend mode="normal" in2="shape" result="effect2_innerShadow_258_10571"/>
</filter>
<filter id="filter1_di_258_10571" x="114.46" y="24" width="203.14" height="305" filterUnits="userSpaceOnUse" color-interpolation-filters="sRGB">
<feFlood flood-opacity="0" result="BackgroundImageFix"/>
<feColorMatrix in="SourceAlpha" type="matrix" values="0 0 0 0 0 0 0 0 0 0 0 0 0 0 0 0 0 0 127 0" result="hardAlpha"/>
<feOffset dy="4"/>
<feGaussianBlur stdDeviation="2"/>
<feComposite in2="hardAlpha" operator="out"/>
<feColorMatrix type="matrix" values="0 0 0 0 0 0 0 0 0 0 0 0 0 0 0 0 0 0 0.25 0"/>
<feBlend mode="normal" in2="BackgroundImageFix" result="effect1_dropShadow_258_10571"/>
<feBlend mode="normal" in="SourceGraphic" in2="effect1_dropShadow_258_10571" result="shape"/>
<feColorMatrix in="SourceAlpha" type="matrix" values="0 0 0 0 0 0 0 0 0 0 0 0 0 0 0 0 0 0 127 0" result="hardAlpha"/>
<feOffset dx="-10" dy="-4"/>
<feGaussianBlur stdDeviation="20"/>
<feComposite in2="hardAlpha" operator="arithmetic" k2="-1" k3="1"/>
<feColorMatrix type="matrix" values="0 0 0 0 0 0 0 0 0 0 0 0 0 0 0 0 0 0 0.25 0"/>
<feBlend mode="normal" in2="shape" result="effect2_innerShadow_258_10571"/>
</filter>
<linearGradient id="paint0_linear_258_10571" x1="71.6263" y1="-99.6991" x2="469.718" y2="151.258" gradientUnits="userSpaceOnUse">
<stop stop-color="#ECB800"/>
<stop offset="0.744792" stop-color="#D000AC"/>
</linearGradient>
<linearGradient id="paint1_linear_258_10571" x1="61.8263" y1="-107.699" x2="459.918" y2="143.258" gradientUnits="userSpaceOnUse">
<stop stop-color="#ECB800"/>
<stop offset="0.744792" stop-color="#D000AC"/>
</linearGradient>
<linearGradient id="paint2_linear_258_10571" x1="110.382" y1="263.274" x2="87.1485" y2="331.593" gradientUnits="userSpaceOnUse">
<stop stop-color="#ECB800"/>
<stop offset="0.484375" stop-color="#D000AC"/>
</linearGradient>
<linearGradient id="paint3_linear_258_10571" x1="132.422" y1="298.58" x2="111.506" y2="370.497" gradientUnits="userSpaceOnUse">
<stop stop-color="#ECB800"/>
<stop offset="0.484375" stop-color="#D000AC"/>
</linearGradient>
</defs>
</svg>
