<svg width="22" height="23" viewBox="0 0 22 23" fill="none" xmlns="http://www.w3.org/2000/svg">
<rect y="0.470703" width="22" height="22" rx="11" fill="url(#paint0_linear_130_1521)"/>
<path d="M15.4001 7.40178L13.7471 16.0313C13.7471 16.0313 13.5158 16.6296 12.8805 16.3427L9.06659 13.3145L9.0489 13.3055C9.56407 12.8265 13.5589 9.10702 13.7335 8.93842C14.0038 8.67731 13.836 8.52186 13.5222 8.7191L7.62131 12.5997L5.34477 11.8065C5.34477 11.8065 4.98651 11.6745 4.95205 11.3876C4.91713 11.1001 5.35656 10.9447 5.35656 10.9447L14.6373 7.17448C14.6373 7.17448 15.4001 6.82742 15.4001 7.40178Z" fill="#FBFBFB"/>
<defs>
<linearGradient id="paint0_linear_130_1521" x1="-1.22935e-07" y1="11.4707" x2="22" y2="11.4707" gradientUnits="userSpaceOnUse">
<stop stop-color="#FE646B"/>
<stop offset="1" stop-color="#F49F27"/>
</linearGradient>
</defs>
</svg>
